<svg width="64" height="64" viewBox="0 0 64 64" fill="none" xmlns="http://www.w3.org/2000/svg">
<circle cx="32" cy="32" r="32" fill="#222646"/>
<path d="M35.8226 34.2628L35.8047 34.3555C35.7714 34.5228 35.681 34.6733 35.5491 34.7814C35.4172 34.8895 35.2519 34.9485 35.0813 34.9484H28.6832V33.1193C28.6829 33.0213 28.6452 32.9271 28.5779 32.856C28.5443 32.8203 28.504 32.7917 28.4593 32.7716C28.4146 32.7516 28.3664 32.7407 28.3175 32.7394C28.2685 32.7381 28.2198 32.7466 28.1741 32.7642C28.1284 32.7819 28.0867 32.8084 28.0514 32.8423L25.1724 35.6381L25.1556 35.6581C25.0524 35.7692 24.9966 35.9163 25.0002 36.0679C25.0037 36.2195 25.0663 36.3638 25.1745 36.47L28.0493 39.2657C28.1184 39.3335 28.2115 39.3713 28.3083 39.371C28.3581 39.3705 28.4073 39.3601 28.4531 39.3406C28.4988 39.321 28.5403 39.2926 28.5751 39.257C28.6099 39.2214 28.6374 39.1793 28.6559 39.1331C28.6745 39.0869 28.6837 39.0375 28.6832 38.9877V37.1597H35.6857C36.2722 37.1597 36.8347 36.9267 37.2494 36.512C37.6641 36.0973 37.8971 35.5348 37.8971 34.9484V34.4682C37.8971 34.3306 37.87 34.1944 37.8173 34.0674C37.7646 33.9403 37.6874 33.8249 37.5901 33.7277C37.4928 33.6305 37.3773 33.5534 37.2502 33.5009C37.1231 33.4483 36.9869 33.4213 36.8493 33.4215C36.6073 33.4214 36.3727 33.5052 36.1856 33.6586C35.9984 33.812 35.8701 34.0255 35.8226 34.2628Z" fill="#6871C1"/>
<path d="M28.1775 29.736L28.1954 29.6434C28.229 29.4763 28.3194 29.3261 28.4513 29.2182C28.5832 29.1103 28.7484 29.0514 28.9188 29.0516H35.3169V30.8796C35.3173 30.9779 35.3549 31.0724 35.4222 31.1439C35.4558 31.1797 35.4961 31.2084 35.5408 31.2284C35.5856 31.2484 35.6339 31.2593 35.6829 31.2605C35.7318 31.2616 35.7806 31.2531 35.8262 31.2352C35.8719 31.2174 35.9135 31.1907 35.9488 31.1566L38.8256 28.3619L38.8446 28.3419C38.9477 28.2307 39.0035 28.0837 39 27.9321C38.9964 27.7804 38.9339 27.6362 38.8256 27.53L35.9509 24.7342C35.8815 24.6667 35.7886 24.629 35.6918 24.6289C35.6421 24.6293 35.5929 24.6395 35.5471 24.659C35.5014 24.6784 35.4599 24.7067 35.4251 24.7422C35.3902 24.7777 35.3628 24.8198 35.3442 24.8659C35.3256 24.9121 35.3164 24.9614 35.3169 25.0112V26.8402H28.3144C27.7279 26.8402 27.1654 27.0732 26.7507 27.4879C26.336 27.9026 26.103 28.4651 26.103 29.0516V29.5307C26.103 29.81 26.214 30.0778 26.4114 30.2753C26.6089 30.4728 26.8768 30.5837 27.156 30.5837C27.3977 30.5811 27.6312 30.4954 27.8171 30.3411C28.0031 30.1867 28.1304 29.9731 28.1775 29.736Z" fill="#6871C1"/>
</svg>
